<?xml version="1.0" standalone="no"?>
<!DOCTYPE svg PUBLIC "-//W3C//DTD SVG 20010904//EN"
 "http://www.w3.org/TR/2001/REC-SVG-20010904/DTD/svg10.dtd">
<svg version="1.0" xmlns="http://www.w3.org/2000/svg"
 width="600.000000pt" height="600.000000pt" viewBox="0 0 600.000000 600.000000"
 preserveAspectRatio="xMidYMid meet">
<metadata>
Created by potrace 1.11, written by Peter Selinger 2001-2013
</metadata>
<g transform="translate(0.000000,600.000000) scale(0.100000,-0.100000)"
fill="#000000" stroke="none">
<path d="M4187 5943 c-2 -1 -85 -5 -337 -18 -198 -10 -315 -16 -380 -20 -95
-6 -260 -15 -370 -20 -47 -2 -128 -7 -180 -10 -52 -3 -139 -7 -192 -10 -142
-7 -269 -14 -388 -21 -58 -3 -139 -7 -180 -9 -68 -3 -160 -8 -380 -20 -41 -2
-133 -7 -205 -11 -71 -3 -148 -8 -170 -9 -22 -2 -54 -3 -72 -4 -87 -3 -137
-121 -134 -321 1 -144 24 -255 61 -306 15 -22 70 -54 91 -54 21 0 179 -52 179
-59 0 -4 -12 -8 -27 -8 -30 -1 -111 -11 -154 -19 -43 -8 -57 -31 -76 -124 -16
-85 -20 -214 -9 -301 l7 -56 -88 2 c-98 2 -124 -8 -149 -56 -8 -16 -12 -29 -9
-29 3 0 1 -8 -4 -18 -13 -25 -22 -104 -22 -207 -1 -174 16 -241 70 -286 21
-17 30 -29 21 -30 -178 -10 -218 -28 -243 -111 -47 -156 -43 -462 7 -583 37
-88 61 -96 313 -109 35 -1 65 -5 68 -8 11 -10 26 -117 27 -188 0 -84 -19 -197
-36 -207 -6 -4 -22 -9 -36 -11 -64 -9 -88 -37 -76 -86 6 -23 23 -29 258 -98
43 -12 76 -23 74 -25 -2 -2 -14 -6 -27 -9 -48 -10 -181 -35 -255 -48 -50 -9
-127 -117 -135 -191 0 -5 -5 -17 -9 -25 -5 -9 -11 -44 -15 -80 -7 -70 -15 -92
-36 -96 -63 -9 -102 -17 -210 -40 -68 -15 -130 -27 -137 -27 -20 -1 -68 -67
-82 -112 -28 -96 -38 -176 -36 -295 4 -168 33 -267 101 -335 5 -6 33 -19 60
-29 28 -9 59 -21 70 -26 11 -5 34 -13 50 -19 17 -5 113 -42 215 -81 102 -39
210 -80 240 -91 30 -10 64 -23 75 -29 11 -5 151 -59 310 -120 160 -61 299
-114 310 -119 11 -5 47 -19 80 -31 33 -12 79 -31 102 -41 24 -11 45 -19 48
-19 5 0 299 -112 340 -130 43 -19 445 -174 725 -280 74 -28 144 -55 155 -59
41 -18 103 -41 201 -76 l100 -37 115 76 c62 42 121 80 129 86 8 5 66 44 128
85 63 41 115 75 117 75 2 0 47 29 100 65 54 36 99 65 100 65 2 0 40 25 85 55
45 30 83 55 85 55 2 0 73 44 157 98 226 145 477 299 613 377 146 82 166 99
163 137 -2 25 -8 30 -54 44 -65 19 -73 34 -76 139 -3 152 57 328 128 373 33
22 36 27 31 59 -4 20 -10 40 -14 44 -7 6 -56 18 -188 45 -11 2 -31 6 -45 9
-14 3 -41 8 -60 11 -19 2 -64 11 -100 18 -36 8 -73 14 -82 15 -53 3 -51 0 -44
75 6 74 29 183 45 213 5 10 14 30 20 44 7 14 28 34 47 44 20 10 39 26 44 34
12 24 -5 58 -33 65 -25 6 -25 7 -12 49 18 62 26 144 27 288 0 148 -6 200 -34
257 -24 51 -40 61 -110 66 -105 9 -183 18 -187 22 -2 2 13 24 33 48 40 49 58
106 34 106 -47 0 -59 42 -58 210 1 134 5 177 24 251 9 33 16 62 16 64 0 1 14
5 30 9 21 4 30 11 30 26 0 11 -7 21 -15 21 -8 1 -19 3 -25 4 -5 1 -16 3 -24 4
-8 0 -17 19 -21 44 -4 23 -9 49 -11 57 -5 18 -5 266 0 295 16 108 22 120 65
123 14 0 28 7 32 15 6 9 22 13 51 11 24 -2 58 -4 76 -5 53 -2 61 19 9 23 -20
2 -30 11 -41 39 -50 125 -35 400 25 460 11 11 33 22 49 26 22 4 30 11 30 28 0
12 -6 22 -12 23 -27 2 -143 18 -198 26 -19 4 -48 8 -65 10 -152 18 -143 15
-147 55 -11 85 2 265 25 341 13 45 13 45 57 45 52 0 70 9 70 34 0 16 -232 250
-370 374 l-54 47 -104 -2 c-57 -2 -104 -4 -105 -5z"/>
</g>
</svg>
